<?xml version="1.0" standalone="no"?>
<!DOCTYPE svg PUBLIC "-//W3C//DTD SVG 1.1//EN" "http://www.w3.org/Graphics/SVG/1.1/DTD/svg11.dtd" >
<svg xmlns="http://www.w3.org/2000/svg">
<metadata></metadata>
<defs>
<font id="apercu_probold_italic" horiz-adv-x="1499" >
<font-face units-per-em="2048" ascent="1638" descent="-410" />
<missing-glyph horiz-adv-x="452" />
<glyph unicode="&#xfb01;" horiz-adv-x="1140" d="M37 0l158 815h-132l43 217h132l2 12q68 406 544 406q199 0 301 -59l-110 -209q-102 51 -203 51q-240 0 -276 -191l-2 -10h575l-201 -1032h-256l158 815h-319l-158 -815h-256z" />
<glyph unicode="&#xfb02;" horiz-adv-x="1296" d="M37 0l158 815h-132l43 217h132l10 53q35 182 148.5 273.5t279.5 91.5h565l-280 -1450h-256l239 1233h-295q-117 0 -143 -129l-12 -72h217l-43 -217h-217l-158 -815h-256z" />
<glyph horiz-adv-x="0" />
<glyph horiz-adv-x="0" />
<glyph unicode="&#xd;" horiz-adv-x="681" />
<glyph unicode=" "  horiz-adv-x="452" />
<glyph unicode="&#x09;" horiz-adv-x="452" />
<glyph unicode="&#xa0;" horiz-adv-x="452" />
<glyph unicode="!" horiz-adv-x="755" d="M115 156q0 72 50 122t119.5 50t120 -50.5t50.5 -121.5q0 -70 -49.5 -119t-121 -49t-120.5 49t-49 119zM238 496l124 938h336l-239 -938h-221z" />
<glyph unicode="&#x22;" horiz-adv-x="987" d="M236 940l36 510h283l-164 -510h-155zM625 940l37 510h282l-164 -510h-155z" />
<glyph unicode="#" horiz-adv-x="1466" d="M72 395l24 201h277l78 242h-242l24 200h283l129 396h205l-129 -396h231l129 396h205l-129 -396h236l-25 -200h-276l-78 -242h241l-24 -201h-283l-129 -395h-205l129 395h-231l-129 -395h-205l129 395h-235zM578 596h231l78 242h-232z" />
<glyph unicode="$" horiz-adv-x="1105" d="M23 389l227 123q12 -131 74.5 -207t181.5 -76q92 0 147.5 50.5t55.5 142.5q0 80 -47.5 127t-155.5 106q-137 74 -210 164t-73 230q0 158 101.5 266t263.5 129l33 174h249l-39 -201q166 -70 218 -235l-222 -123q-59 145 -186 145q-68 0 -108.5 -39t-40.5 -108 q0 -63 49 -111.5t155 -101.5q152 -76 220.5 -157t68.5 -234q0 -229 -154 -353q-117 -94 -278 -112l-33 -172h-250l35 190q-125 43 -203.5 150.5t-78.5 232.5z" />
<glyph unicode="%" horiz-adv-x="1816" d="M113 1069q0 168 125 281q111 100 280 100q121 0 200 -77t79 -197q0 -168 -125 -281q-111 -100 -281 -100q-121 0 -199.5 76.5t-78.5 197.5zM123 51l1386 1473l129 -125l-1386 -1473zM324 1096q0 -106 104 -107q66 0 112 46t46 114q0 106 -105 106q-66 0 -111.5 -45.5 t-45.5 -113.5zM950 258q0 168 125 281q111 100 281 100q121 0 199.5 -77t78.5 -197q0 -168 -125 -281q-111 -100 -280 -100q-121 0 -200 76.5t-79 197.5zM1161 285q0 -106 105 -107q66 0 111.5 46t45.5 114q0 106 -104 106q-66 0 -112 -45.5t-46 -113.5z" />
<glyph unicode="&#x26;" horiz-adv-x="1320" d="M59 375q0 348 367 499q-51 98 -51 220q0 160 107.5 258t275.5 98q139 0 221 -77t82 -191q0 -139 -81 -232.5t-226 -165.5l155 -274q80 139 140 272l125 -188q-68 -164 -150 -285l176 -309h-285l-65 115q-170 -131 -373 -131q-182 0 -300 107.5t-118 283.5zM309 426 q0 -102 59.5 -161.5t161.5 -59.5q106 0 213 96l-217 387q-217 -88 -217 -262zM600 1087q0 -57 47 -131q176 80 176 193q0 39 -25.5 63.5t-64.5 24.5q-59 0 -96 -44.5t-37 -105.5z" />
<glyph unicode="'" horiz-adv-x="598" d="M236 940l36 510h283l-164 -510h-155z" />
<glyph unicode="(" horiz-adv-x="585" d="M84 453q0 311 110.5 603t299.5 480h219q-190 -256 -290.5 -521t-100.5 -597q0 -309 73 -520h-219q-92 256 -92 555z" />
<glyph unicode=")" horiz-adv-x="585" d="M-135 -102q190 256 290.5 521t100.5 597q0 309 -74 520h219q92 -256 93 -555q0 -311 -111 -603t-299 -480h-219z" />
<glyph unicode="*" horiz-adv-x="1007" d="M162 1090l90 202l217 -73l45 231h213l-45 -231l223 73l53 -202l-249 -76l100 -187l-197 -129l-100 191l-174 -191l-148 129l175 187z" />
<glyph unicode="+" horiz-adv-x="1241" d="M86 539l43 221h377l74 377h223l-74 -377h377l-43 -221h-377l-74 -377h-223l74 377h-377z" />
<glyph unicode="," horiz-adv-x="780" d="M-18 -319l274 618h336l-434 -618h-176z" />
<glyph unicode="-" horiz-adv-x="1034" d="M98 539l43 221h764l-43 -221h-764z" />
<glyph unicode="." horiz-adv-x="622" d="M41 159.5q0 73.5 49 123t123 49.5t123 -49.5t49 -123t-49 -122.5t-123 -49t-123 49t-49 122.5z" />
<glyph unicode="/" horiz-adv-x="1122" d="M-178 -102l1192 1638h272l-1192 -1638h-272z" />
<glyph unicode="0" horiz-adv-x="1241" d="M61 514q0 172 39 332t119 298t220.5 222t322.5 84t300 -132t118 -398q0 -135 -23.5 -265.5t-77 -253t-133.5 -214t-200.5 -147.5t-268.5 -56q-180 0 -298 132t-118 398zM322 524q0 -150 54 -226.5t148 -76.5q129 0 223.5 121t133.5 272.5t39 294.5q0 150 -54.5 226.5 t-148.5 76.5q-129 0 -223.5 -120.5t-133 -272.5t-38.5 -295z" />
<glyph unicode="1" horiz-adv-x="876" d="M139 909l54 279l469 246h114l-280 -1434h-260l208 1073z" />
<glyph unicode="2" horiz-adv-x="1136" d="M-33 0l19 102l639 668q86 88 128 157.5t42 149.5q0 63 -36 99t-102 36q-154 0 -217 -204l-243 41q45 186 172 293.5t309 107.5t279.5 -94t97.5 -262q0 -111 -40 -197t-126 -176l-457 -483h496l-45 -238h-916z" />
<glyph unicode="3" horiz-adv-x="1142" d="M6 399l238 31q27 -209 211 -209q123 0 188.5 76t65.5 199q0 225 -189 225q-63 0 -131 -31l-74 135l336 387h-446l41 222h823l-16 -91l-430 -456q41 4 59 4q133 0 210 -91t77 -272q0 -254 -143.5 -399t-387.5 -145q-195 0 -313.5 121.5t-118.5 293.5z" />
<glyph unicode="4" horiz-adv-x="1210" d="M6 266l25 131l805 1037h272l-182 -930h159l-45 -238h-159l-54 -266h-260l54 266h-615zM389 504h277l100 520z" />
<glyph unicode="5" horiz-adv-x="1140" d="M23 346q0 29 2 43l249 37q4 -100 55.5 -152.5t137.5 -52.5q119 0 189.5 79t70.5 212q0 100 -47 155.5t-133 55.5q-160 0 -291 -129l-156 33l226 807h751l-45 -238h-532l-90 -299q100 53 202 53q178 0 276.5 -101t98.5 -298q0 -260 -150.5 -413.5t-404.5 -153.5 q-190 0 -299.5 103t-109.5 259z" />
<glyph unicode="6" horiz-adv-x="1185" d="M66 371q0 190 135 364l549 715h297l-418 -532h33q174 0 277 -104.5t103 -295.5q0 -252 -158.5 -393t-398.5 -141q-188 0 -303.5 109.5t-115.5 277.5zM326 410q0 -84 53 -136.5t129 -52.5q113 0 193.5 78t80.5 190q0 92 -51 141.5t-133 49.5q-111 0 -191.5 -77.5 t-80.5 -192.5z" />
<glyph unicode="7" horiz-adv-x="1042" d="M39 0l700 1196h-542l47 238h872l-22 -107l-779 -1327h-276z" />
<glyph unicode="8" horiz-adv-x="1144" d="M39 362q0 145 77 253t197 163q-41 35 -70.5 99.5t-29.5 136.5q0 186 139.5 311t349.5 125q170 0 267.5 -93t97.5 -263q0 -111 -63.5 -199t-151.5 -127q57 -31 101 -117t44 -186q0 -213 -127 -336q-152 -145 -424 -145q-174 0 -290.5 106t-116.5 272zM299 399 q0 -86 52 -132t132 -46q106 0 180 59.5t74 170.5q0 88 -48 136t-130 48q-109 0 -184.5 -65t-75.5 -171zM457 1028q0 -68 41 -112t106 -44q92 0 155.5 58.5t63.5 148.5q0 72 -41 115t-110 43q-86 0 -150.5 -58.5t-64.5 -150.5z" />
<glyph unicode="9" horiz-adv-x="1124" d="M104 -16l418 532h-33q-174 0 -277 104.5t-103 294.5q0 252 158.5 393.5t398.5 141.5q188 0 303.5 -109.5t115.5 -277.5q0 -190 -135 -365l-549 -714h-297zM369 944q0 -92 51 -141t133 -49q111 0 191.5 77.5t80.5 192.5q0 86 -50 137t-132 51q-113 0 -193.5 -77.5 t-80.5 -190.5z" />
<glyph unicode=":" horiz-adv-x="671" d="M66 159.5q0 73.5 49 123t122.5 49.5t123 -49.5t49.5 -123t-49.5 -122.5t-123 -49t-122.5 49t-49 122.5zM207 876.5q0 73.5 49 123t123 49.5t123 -49.5t49 -123t-49 -122.5t-123 -49t-123 49t-49 122.5z" />
<glyph unicode=";" horiz-adv-x="671" d="M-117 -319l275 618h336l-435 -618h-176zM207 876.5q0 73.5 49 123t123 49.5t123 -49.5t49 -123t-49 -122.5t-123 -49t-123 49t-49 122.5z" />
<glyph unicode="&#x3c;" horiz-adv-x="991" d="M66 514v242l800 415v-268l-516 -268l516 -268v-269z" />
<glyph unicode="=" horiz-adv-x="1243" d="M156 340v221h895v-221h-895zM156 709v221h895v-221h-895z" />
<glyph unicode="&#x3e;" horiz-adv-x="991" d="M125 98v269l516 268l-516 268v268l801 -415v-242z" />
<glyph unicode="?" horiz-adv-x="935" d="M139 1124q49 147 168 236.5t283 89.5q150 0 239 -75t89 -216q0 -195 -201 -272l-254 -96q-51 -18 -76 -41t-25 -62q0 -29 18.5 -48t49.5 -19q72 0 131 102l174 -61q-59 -121 -140 -173.5t-194 -52.5q-117 0 -187.5 64.5t-70.5 169.5q0 111 58.5 168t181.5 108l192 80 q100 49 101 117q0 43 -29 68.5t-82 25.5q-135 0 -203 -166zM147 156q0 72 50.5 122t120 50t119.5 -50.5t50 -121.5q0 -70 -49 -119t-120.5 -49t-121 49t-49.5 119z" />
<glyph unicode="@" horiz-adv-x="1880" d="M111 555q0 418 258 666.5t669 248.5q322 0 531 -178t209 -493q0 -260 -111 -419t-332 -159q-76 0 -137 35t-86 98q-121 -133 -291 -133q-160 0 -247 92.5t-87 253.5q0 221 143.5 355.5t352.5 134.5q145 0 223 -78l31 63h170l-96 -448q-14 -72 -15 -86q0 -74 76 -74 q160 0 160 328q0 250 -132 372.5t-376 122.5q-295 0 -481.5 -187t-186.5 -503q0 -268 156 -407.5t389 -139.5q256 0 561 140l62 -209q-190 -80 -329.5 -112t-301.5 -32q-340 0 -561 199t-221 549zM723 584q0 -66 38 -108t105 -42q104 0 177 68.5t73 179.5q0 78 -40 120 t-115 42q-102 0 -170 -77t-68 -183z" />
<glyph unicode="A" horiz-adv-x="1224" d="M-135 0l766 1434h262l211 -1434h-287l-37 338h-454l-172 -338h-289zM449 584h303l-56 506z" />
<glyph unicode="B" horiz-adv-x="1263" d="M53 0l281 1434h504q164 0 263 -84t99 -242q0 -111 -55 -200t-150 -130q63 -29 110.5 -101.5t47.5 -176.5q0 -242 -142.5 -371t-381.5 -129h-576zM371 246h258q115 0 185.5 53t70.5 160q0 172 -191 172h-250zM494 877h227q92 0 151.5 42t59.5 125q0 143 -162 144h-217z " />
<glyph unicode="C" horiz-adv-x="1421" d="M72 588q0 354 234.5 608t594.5 254q225 0 358.5 -126t153.5 -327l-252 -61q-29 139 -103.5 203.5t-203.5 64.5q-223 0 -366.5 -182t-143.5 -412q0 -186 87 -283.5t233 -97.5q127 0 218 65.5t169 213.5l235 -74q-98 -236 -259 -343t-411 -107q-231 0 -387.5 166 t-156.5 438z" />
<glyph unicode="D" horiz-adv-x="1392" d="M53 0l281 1434h407q254 0 415 -149.5t161 -426.5q0 -399 -228.5 -628.5t-599.5 -229.5h-436zM371 246h112q260 0 408.5 155.5t148.5 413.5q0 205 -103 289t-286 84h-98z" />
<glyph unicode="E" horiz-adv-x="1175" d="M53 0l281 1434h866l-49 -246h-598l-57 -301h475l-49 -246h-476l-75 -395h618l-49 -246h-887z" />
<glyph unicode="F" horiz-adv-x="1146" d="M53 0l281 1434h880l-49 -246h-612l-64 -328h488l-47 -246h-488l-120 -614h-269z" />
<glyph unicode="G" horiz-adv-x="1486" d="M72 578q0 242 97 439t285.5 315t438.5 118q223 0 352 -123t160 -330l-250 -65q-43 135 -114.5 203.5t-196.5 68.5q-217 0 -356.5 -172t-139.5 -416q0 -182 87 -284.5t237 -102.5q139 0 235.5 78t139.5 199h-267l43 217h525l-142 -723h-221v141q-128 -157 -372 -157h-3 q-225 0 -381.5 160t-156.5 434z" />
<glyph unicode="H" horiz-adv-x="1458" d="M53 0l281 1434h268l-106 -545h534l107 545h268l-281 -1434h-268l127 643h-534l-127 -643h-269z" />
<glyph unicode="I" horiz-adv-x="655" d="M53 0l281 1434h268l-280 -1434h-269z" />
<glyph unicode="J" horiz-adv-x="1132" d="M-23 387l263 51q0 -94 43 -151.5t120 -57.5q186 0 234 246l186 959h269l-201 -1031q-39 -207 -154 -309q-124 -110 -354 -110h-4q-184 0 -293 116.5t-109 286.5z" />
<glyph unicode="K" horiz-adv-x="1304" d="M53 0l281 1434h268l-106 -531l544 531h342l-684 -650l461 -784h-328l-378 682l-131 -682h-269z" />
<glyph unicode="L" horiz-adv-x="1060" d="M53 0l281 1434h268l-231 -1188h585l-49 -246h-854z" />
<glyph unicode="M" horiz-adv-x="1644" d="M53 0l281 1434h301l147 -895l494 895h315l-280 -1434h-269l170 868l-403 -737h-195l-120 754l-172 -885h-269z" />
<glyph unicode="N" horiz-adv-x="1458" d="M53 0l281 1434h282l336 -947l185 947h268l-281 -1434h-282l-336 946l-184 -946h-269z" />
<glyph unicode="O" d="M72 586q0 356 198 594q223 270 592 270q238 0 399.5 -156.5t161.5 -445.5q0 -356 -198 -594q-223 -270 -592 -270q-238 0 -399.5 156.5t-161.5 445.5zM348 606q0 -178 79 -277.5t226 -99.5q199 0 340 164q154 180 154 434q0 178 -79 277.5t-226 99.5q-199 0 -340 -164 q-154 -180 -154 -434z" />
<glyph unicode="P" horiz-adv-x="1220" d="M53 0l281 1434h502q184 0 292.5 -97.5t108.5 -281.5q0 -231 -158.5 -362.5t-416.5 -131.5h-230l-110 -561h-269zM479 807h226q115 0 185.5 60.5t70.5 164.5q0 74 -43.5 115t-122.5 41h-242z" />
<glyph unicode="Q" d="M72 586q0 356 198 594q223 270 592 270q238 0 399.5 -156.5t161.5 -445.5q0 -330 -170 -555l103 -125l-221 -184l-91 108q-173 -109 -409 -109q-1 0 -3 1q-237 0 -398.5 156.5t-161.5 445.5zM348 606q0 -178 79 -277.5t226 -99.5q125 0 228 66l-148 184l221 185l121 -150 q72 139 72 313q0 178 -79 277.5t-226 99.5q-199 0 -340 -164q-154 -180 -154 -434z" />
<glyph unicode="R" horiz-adv-x="1257" d="M53 0l281 1434h508q180 0 281.5 -93.5t101.5 -246.5q0 -184 -106.5 -302t-256.5 -151l279 -641h-289l-264 618h-146l-120 -618h-269zM489 864h244q94 0 156.5 52.5t62.5 138.5q0 133 -147 133h-252z" />
<glyph unicode="S" horiz-adv-x="1105" d="M23 389l227 123q12 -131 74.5 -207t181.5 -76q92 0 147.5 50.5t55.5 142.5q0 80 -47.5 127t-155.5 106q-137 74 -210 164t-73 230q0 180 124 290.5t319 110.5q139 0 244.5 -78t138.5 -190l-222 -123q-59 145 -186 145q-68 0 -108.5 -39t-40.5 -108q0 -63 49 -111.5 t155 -101.5q152 -76 220.5 -157t68.5 -234q0 -229 -154 -353q-82 -66 -170 -91t-219 -25q-172 0 -295.5 122.5t-123.5 282.5z" />
<glyph unicode="T" horiz-adv-x="1073" d="M100 1188l50 246h1046l-49 -246h-389l-232 -1188h-268l231 1188h-389z" />
<glyph unicode="U" horiz-adv-x="1394" d="M119 399q0 66 16 146l172 889h268l-172 -893q-12 -63 -12 -109q0 -96 52.5 -149.5t152.5 -53.5q256 0 317 312l172 893h271l-172 -889q-59 -305 -218 -433t-417 -128q-193 0 -311.5 108t-118.5 307z" />
<glyph unicode="V" horiz-adv-x="1196" d="M109 1434h290l115 -1061l528 1061h297l-757 -1434h-269z" />
<glyph unicode="W" horiz-adv-x="1851" d="M160 1434h282l37 -1049l418 897h236l88 -903l442 1055h283l-648 -1434h-272l-90 842l-404 -842h-268z" />
<glyph unicode="X" horiz-adv-x="1163" d="M-123 0l600 772l-254 662h291l148 -420l311 420h291l-502 -674l282 -760h-276l-193 520l-399 -520h-299z" />
<glyph unicode="Y" horiz-adv-x="1040" d="M98 1434h283l149 -557l373 557h287l-569 -824l-117 -610h-268l118 610z" />
<glyph unicode="Z" horiz-adv-x="1181" d="M-59 0l24 123l823 1065h-587l49 246h956l-24 -123l-822 -1065h648l-50 -246h-1017z" />
<glyph unicode="[" horiz-adv-x="722" d="M37 -102l315 1638h473l-43 -221h-225l-231 -1196h225l-43 -221h-471z" />
<glyph unicode="\" horiz-adv-x="954" d="M68 1536h256l571 -1638h-256z" />
<glyph unicode="]" horiz-adv-x="722" d="M-41 -102l43 221h223l232 1196h-226l43 221h474l-318 -1638h-471z" />
<glyph unicode="^" horiz-adv-x="1253" d="M129 825l401 609h220l401 -609h-250l-260 387l-262 -387h-250z" />
<glyph unicode="_" horiz-adv-x="1026" d="M-102 -221l43 221h931l-43 -221h-931z" />
<glyph unicode="`" horiz-adv-x="468" d="M102 1450h344l72 -303h-194z" />
<glyph unicode="a" horiz-adv-x="1234" d="M45 401q0 289 155.5 468.5t434.5 179.5q76 0 138.5 -31t90.5 -74l17 88h256l-199 -1032h-256l20 106q-33 -45 -109.5 -83.5t-164.5 -38.5q-184 0 -283.5 117.5t-99.5 299.5zM317 449q0 -117 52.5 -182.5t136.5 -65.5q145 0 227 118.5t82 284.5q0 109 -51 168t-137 59 q-145 0 -227.5 -119.5t-82.5 -262.5z" />
<glyph unicode="b" horiz-adv-x="1236" d="M37 0l282 1450h256l-100 -512q119 111 275 111q170 0 273 -113t103 -315q0 -279 -147.5 -458t-413.5 -179q-90 0 -156.5 37.5t-93.5 84.5l-22 -106h-256zM360 442q0 -115 52.5 -178t146.5 -63q137 0 216 120.5t79 266.5q0 117 -50 180t-138 63q-137 0 -221.5 -113.5 t-84.5 -275.5z" />
<glyph unicode="c" horiz-adv-x="1144" d="M45 416q0 258 172 445.5t449 187.5q332 0 405 -297l-233 -86q-47 165 -213 165h-2q-143 0 -224.5 -120.5t-81.5 -276.5q0 -233 185 -233q150 0 274 178l203 -86q-94 -164 -219 -236.5t-301 -72.5q-193 0 -303.5 123t-110.5 309z" />
<glyph unicode="d" horiz-adv-x="1261" d="M45 410q0 281 153.5 460t417.5 179q86 0 154 -33t94 -78l101 512h256l-283 -1450h-256l23 106q-93 -122 -272 -122h-3q-178 0 -281.5 114.5t-103.5 311.5zM317 444q0 -119 50.5 -181t140.5 -62q143 0 225 131t82 270q0 115 -50 172t-136 57q-145 0 -228.5 -120 t-83.5 -267z" />
<glyph unicode="e" horiz-adv-x="1161" d="M41 440q0 248 170 428.5t442 180.5q197 0 305.5 -117t108.5 -297q0 -59 -8 -96l-21 -105h-741v-33q0 -84 56.5 -142t152.5 -58q164 0 282 176l203 -105q-100 -150 -219 -219t-289 -69q-195 0 -318.5 122.5t-123.5 333.5zM346 635h471q-12 196 -194 196h-2q-92 0 -166 -56 t-109 -140z" />
<glyph unicode="f" horiz-adv-x="733" d="M37 0l158 815h-132l43 217h132l10 55q70 362 422 363q109 0 188 -47l-94 -205q-53 35 -121 35q-113 0 -137 -129l-12 -72h217l-43 -217h-217l-158 -815h-256z" />
<glyph unicode="g" horiz-adv-x="1087" d="M-61 -121q0 141 122 232q-37 41 -36 120q0 168 192 258q-45 70 -45 164q0 168 117 282t303 114q133 0 213 -45l213 102l78 -162l-170 -80q16 -49 16 -114q0 -186 -118.5 -290t-311.5 -104q-90 0 -166 27q-65 -27 -65 -82q0 -33 21.5 -54.5t59.5 -21.5h226 q135 0 214 -68.5t79 -199.5q0 -195 -144.5 -293t-380.5 -98q-195 0 -306 85t-111 228zM176 -84q0 -61 54.5 -97t150.5 -36q244 0 244 127q0 102 -138 102h-151q-70 0 -117 8q-43 -43 -43 -104zM412 680q0 -55 33.5 -87t89.5 -32q72 0 119.5 41t47.5 117q0 57 -32.5 90 t-87.5 33q-72 0 -121 -43t-49 -119z" />
<glyph unicode="h" horiz-adv-x="1216" d="M37 0l280 1450h256l-112 -584q160 182 354 183q125 0 196.5 -67t71.5 -177q0 -35 -8 -84l-139 -721h-256l125 647q8 47 8 68q0 116 -123 116h-2q-94 0 -183 -100t-128 -295l-84 -436h-256z" />
<glyph unicode="i" horiz-adv-x="589" d="M37 0l201 1032h256l-201 -1032h-256zM250 1329.5q0 69.5 47 116.5t116.5 47t117 -47t47.5 -116.5t-47.5 -117t-117 -47.5t-116.5 47.5t-47 117z" />
<glyph unicode="j" horiz-adv-x="589" d="M-242 -211q119 29 187.5 81t95.5 157l195 1005h256l-197 -1024q-43 -223 -165 -322.5t-345 -119.5zM250 1329.5q0 69.5 47 116.5t116.5 47t117 -47t47.5 -116.5t-47.5 -117t-117 -47.5t-116.5 47.5t-47 117z" />
<glyph unicode="k" horiz-adv-x="1087" d="M37 0l280 1450h256l-153 -799l373 381h311l-486 -477l322 -555h-299l-254 481l-94 -481h-256z" />
<glyph unicode="l" horiz-adv-x="643" d="M51 0l281 1450h256l-281 -1450h-256z" />
<glyph unicode="m" horiz-adv-x="1759" d="M37 0l201 1032h256l-31 -153q123 170 315 170q102 0 170 -53.5t80 -159.5q160 213 342 213q123 0 189.5 -61.5t66.5 -176.5q0 -33 -8 -80l-141 -731h-256l133 688q4 23 4 47q0 96 -96 96q-92 0 -176.5 -111.5t-122.5 -318.5l-78 -401h-256l133 688q4 23 4 47q0 96 -96 96 q-92 0 -175 -111.5t-124 -318.5l-78 -401h-256z" />
<glyph unicode="n" horiz-adv-x="1198" d="M37 0l201 1032h256l-33 -166q143 182 346 183q125 0 191.5 -61.5t66.5 -170.5q0 -41 -8 -80l-144 -737h-256l129 662q6 33 7 59q0 53 -30 81.5t-81 28.5q-98 0 -184 -111.5t-125 -307.5l-80 -412h-256z" />
<glyph unicode="o" horiz-adv-x="1204" d="M45 420q0 295 176 465q94 90 191.5 127t230.5 37q205 0 328 -124t123 -313q0 -295 -176 -465q-94 -90 -191.5 -126.5t-230.5 -36.5q-205 0 -328 124t-123 312zM317 459q0 -119 54.5 -188.5t146.5 -69.5q143 0 227 110q76 96 76 262q0 119 -54 188.5t-146 69.5 q-143 0 -228 -110q-76 -96 -76 -262z" />
<glyph unicode="p" horiz-adv-x="1249" d="M-37 -418l283 1450h256l-23 -106q94 123 275 123q178 0 281.5 -115t103.5 -311q0 -281 -154 -460t-418 -179q-86 0 -153.5 32.5t-94.5 77.5l-100 -512h-256zM369 430q0 -115 50 -172t136 -57q145 0 228 119.5t83 267.5q0 119 -50 181t-140 62q-143 0 -225 -131t-82 -270z " />
<glyph unicode="q" horiz-adv-x="1228" d="M45 412q0 279 147.5 458t413.5 179q90 0 156.5 -38t93.5 -85l23 106h256l-283 -1450h-256l100 512q-118 -110 -271 -110h-3q-170 0 -273.5 112.5t-103.5 315.5zM317 444q0 -117 50.5 -180t138.5 -63q137 0 221 113.5t84 275.5q0 115 -52 178t-147 63q-137 0 -216 -121 t-79 -266z" />
<glyph unicode="r" horiz-adv-x="917" d="M37 0l201 1032h256l-31 -153q135 170 323 170q68 0 134 -27l-86 -229q-40 28 -101 28h-4q-109 0 -215 -114.5t-149 -339.5l-72 -367h-256z" />
<glyph unicode="s" horiz-adv-x="940" d="M14 287l217 90q43 -176 201 -176q55 0 93 26.5t38 79.5q0 41 -40 74t-136 78q-211 100 -211 274q0 145 96.5 230.5t264.5 85.5q104 0 196 -50.5t125 -126.5l-182 -131q-51 90 -158 90q-43 0 -71.5 -24.5t-28.5 -67.5q0 -20 10 -37.5t32.5 -32t41 -23.5t50.5 -22.5 t44 -19.5q98 -45 155.5 -105.5t57.5 -156.5q0 -180 -110.5 -269t-295.5 -89q-168 0 -266 93t-123 210z" />
<glyph unicode="t" horiz-adv-x="757" d="M43 815l41 217h160l51 262l285 156l-80 -418h248q-39 -215 -41 -217h-248l-88 -446q-8 -49 -9 -58q0 -110 109 -110h2q45 0 96 24l17 -198q-92 -43 -201 -43q-129 0 -204 74.5t-75 211.5q0 57 9 95l88 450h-160z" />
<glyph unicode="u" horiz-adv-x="1206" d="M84 215q0 41 8 80l144 737h256l-130 -661q-6 -35 -6 -60q0 -53 29 -81.5t82 -28.5q98 0 184 111.5t125 308.5l80 411h256l-201 -1032h-256l33 166q-143 -182 -346 -182q-125 0 -191.5 61t-66.5 170z" />
<glyph unicode="v" horiz-adv-x="933" d="M43 1032h256l68 -713l350 713h256l-537 -1032h-237z" />
<glyph unicode="w" horiz-adv-x="1538" d="M98 1032h262l35 -700l301 700h242l29 -700l309 700h268l-520 -1032h-231l-37 668l-299 -668h-234z" />
<glyph unicode="x" horiz-adv-x="1005" d="M-84 0l449 561l-199 471h268l98 -274l228 274h268l-395 -495l223 -537h-256l-135 340l-281 -340h-268z" />
<glyph unicode="y" horiz-adv-x="1009" d="M-20 -418l264 475l-168 975h256l102 -647l340 647h268l-806 -1450h-256z" />
<glyph unicode="z" horiz-adv-x="948" d="M-33 0l17 98l563 717h-416l41 217h748l-19 -98l-555 -717h461l-41 -217h-799z" />
<glyph unicode="{" horiz-adv-x="712" d="M57 606l43 221q94 0 135 33t62 131l65 340q16 94 81 149.5t163 55.5h180l-43 -221h-55q-49 0 -69.5 -19.5t-30.5 -72.5l-60 -305q-35 -178 -190 -201q119 -18 119 -125q0 -37 -8 -76l-60 -305q-2 -12 -2 -29q0 -63 70 -63h55l-43 -221h-180q-80 0 -125 41t-45 118 q0 12 4 45l65 340q8 43 9 68q0 55 -32 75.5t-108 20.5z" />
<glyph unicode="|" horiz-adv-x="557" d="M186 -102v1638h250v-1638h-250z" />
<glyph unicode="}" horiz-adv-x="712" d="M-72 -102l43 221h54q49 0 69.5 19.5t30.5 72.5l59 305q23 111 69 151t124 50q-121 14 -121 125q0 37 8 76l60 305q4 29 4 39q0 53 -66 53h-61l43 221h180q84 0 128 -40t44 -114q0 -18 -6 -51l-66 -340q-8 -53 -8 -65q0 -57 29.5 -78t109.5 -21l-43 -221q-92 0 -134 -34.5 t-62 -129.5l-66 -340q-37 -205 -229 -204h-193z" />
<glyph unicode="~" horiz-adv-x="1343" d="M119 651q55 96 154.5 162t199.5 66q92 0 205 -60.5t180 -60.5q102 0 203 104l108 -141q-55 -96 -154.5 -161.5t-199.5 -65.5q-90 0 -204.5 60t-180.5 60q-102 0 -203 -104z" />
<glyph unicode="&#xa1;" horiz-adv-x="755" d="M-4 -418l240 938h221l-125 -938h-336zM240 860q0 70 49 119t120.5 49t121 -49t49.5 -119q0 -72 -50.5 -122t-120 -50t-119.5 50t-50 122z" />
<glyph unicode="&#xa2;" horiz-adv-x="1169" d="M106 621q0 223 133.5 399t354.5 221l55 295h252l-57 -295q229 -47 289 -285l-234 -86q-47 166 -215 166q-143 0 -224 -120.5t-81 -276.5q0 -233 184 -233q150 0 275 178l202 -86q-152 -260 -399 -301l-57 -299h-252l61 307q-137 37 -212 149.5t-75 266.5z" />
<glyph unicode="&#xa3;" horiz-adv-x="1157" d="M-37 139q131 102 213 209t82 236v43h-170l45 237h94q-4 45 -4 92q0 229 132 361.5t370 132.5q160 0 263.5 -80t137.5 -221l-233 -96q-43 160 -188 159q-113 0 -174.5 -82.5t-61.5 -228.5v-37h352l-45 -237h-280q0 -20 -9 -78q-25 -117 -77 -188.5t-140 -137.5 q104 57 193 58q45 0 109.5 -31t107.5 -31q76 0 182 137l158 -145q-90 -127 -177 -177t-200 -50q-82 0 -174 37.5t-145 37.5q-106 0 -252 -75z" />
<glyph unicode="&#xa4;" horiz-adv-x="1187" d="M25 285l182 141q-51 92 -51 202.5t51 202.5l-182 142l198 198l142 -182q90 53 202.5 53t202.5 -53l141 182l199 -198l-182 -142q51 -92 51 -202.5t-51 -202.5l182 -141l-199 -199l-141 182q-90 -53 -202.5 -53t-202.5 53l-142 -182zM399 629q0 -82 45 -132.5t123 -50.5 t123 50.5t45 132.5t-45 132t-123 50t-123 -50t-45 -132z" />
<glyph unicode="&#xa5;" horiz-adv-x="1185" d="M98 242l43 221h293l29 147h-293l43 221h186l-176 603h285l135 -560l365 560h286l-413 -603h186l-43 -221h-293l-29 -147h293l-43 -221h-293l-47 -242h-268l47 242h-293z" />
<glyph unicode="&#xa6;" horiz-adv-x="557" d="M186 -102v714h250v-714h-250zM186 821v715h250v-715h-250z" />
<glyph unicode="&#xa7;" horiz-adv-x="1206" d="M39 -111l240 74q12 -78 61 -119t115 -41q61 0 106 42t45 120q0 27 -4 46.5t-19.5 40t-26.5 32.5t-42 32.5t-49.5 32t-65.5 38t-75 42.5q-94 55 -141.5 125t-47.5 181q0 197 197 317q-45 86 -45 182q0 190 120.5 303t317.5 113q158 0 259 -86t122 -238l-240 -73 q-12 78 -61 118.5t-115 40.5q-61 0 -106 -43t-45 -118q0 -27 4 -46.5t19.5 -40t26.5 -32.5t42 -32.5t49 -32t65.5 -38t75.5 -43.5q94 -55 141.5 -124.5t47.5 -180.5q0 -197 -197 -317q45 -86 45 -182q0 -190 -121 -303t-317 -113q-158 0 -259.5 85.5t-121.5 237.5zM365 559 q0 -31 16 -58.5t53 -54t67.5 -45t88 -49t88.5 -47.5q102 49 102 152q0 31 -16 58.5t-53 54t-68 45t-88 49t-88 47.5q-102 -50 -102 -152z" />
<glyph unicode="&#xa8;" horiz-adv-x="739" d="M109 1333.5q0 63.5 40.5 104.5t104 41t104.5 -41t41 -104.5t-41 -104.5t-104.5 -41t-104 41t-40.5 104.5zM532 1333.5q0 63.5 41 104.5t104.5 41t104.5 -41t41 -104.5t-41 -104.5t-104.5 -41t-104.5 41t-41 104.5z" />
<glyph unicode="&#xa9;" horiz-adv-x="1839" d="M131 717q0 340 226.5 569.5t562 229.5t562 -229.5t226.5 -569.5t-226.5 -569.5t-562 -229.5t-562 229.5t-226.5 569.5zM356 717q0 -254 158 -418t405.5 -164t405.5 164t158 418t-158 417.5t-405.5 163.5t-405.5 -163.5t-158 -417.5zM508 717q0 209 120 325.5t292 116.5 q145 0 251.5 -75.5t126.5 -213.5l-198 -39q-43 133 -180 134q-82 0 -134.5 -70t-52.5 -178.5t52.5 -178t134.5 -69.5q137 0 180 133l198 -39q-20 -137 -126.5 -213t-251.5 -76q-172 0 -292 117t-120 326z" />
<glyph unicode="&#xaa;" horiz-adv-x="874" d="M111 852q0 121 96 193.5t250 72.5h135v35q0 119 -141 119q-109 0 -142 -94l-168 39q18 100 102.5 162.5t207.5 62.5q340 0 340 -340v-488h-166l-19 107q-98 -115 -250 -115q-104 0 -174.5 65.5t-70.5 180.5zM319 852q0 -33 21.5 -55.5t62.5 -22.5q74 0 131.5 47t57.5 123 v23h-135q-63 0 -100.5 -31t-37.5 -84z" />
<glyph unicode="&#xab;" horiz-adv-x="1484" d="M59 551l33 180l721 434l-55 -293l-420 -247l317 -265l-49 -256zM694 551l33 180l721 434l-55 -293l-420 -247l317 -265l-49 -256z" />
<glyph unicode="&#xac;" horiz-adv-x="1146" d="M72 604v230h954v-543h-254v313h-700z" />
<glyph unicode="&#xad;" horiz-adv-x="1034" d="M98 539l43 221h764l-43 -221h-764z" />
<glyph unicode="&#xae;" horiz-adv-x="1839" d="M131 717q0 340 226.5 569.5t562 229.5t562 -229.5t226.5 -569.5t-226.5 -569.5t-562 -229.5t-562 229.5t-226.5 569.5zM356 717q0 -254 158 -418t405.5 -164t405.5 164t158 418t-158 417.5t-405.5 163.5t-405.5 -163.5t-158 -417.5zM600 281v872h346q291 0 291 -250 q0 -205 -182 -239l239 -383h-231l-223 372h-25v-372h-215zM815 821h111q98 0 98 82t-98 82h-111v-164z" />
<glyph unicode="&#xaf;" horiz-adv-x="620" d="M125 1266l43 225h551l-43 -225h-551z" />
<glyph unicode="&#xb0;" horiz-adv-x="737" d="M197 1214.5q0 106.5 71.5 177t178 70.5t178 -70.5t71.5 -177t-71.5 -177t-178 -70.5t-178 70.5t-71.5 177zM367 1214.5q0 -36.5 21.5 -59t58 -22.5t58 22.5t21.5 59t-21.5 59t-58 22.5t-58 -22.5t-21.5 -59z" />
<glyph unicode="&#xb1;" horiz-adv-x="1406" d="M123 0l43 221h975l-43 -221h-975zM264 707l43 221h377l74 377h223l-74 -377h377l-43 -221h-377l-73 -377h-224l74 377h-377z" />
<glyph unicode="&#xb2;" horiz-adv-x="858" d="M139 614l13 72l385 379q70 70 69 135q0 33 -19.5 52.5t-51.5 19.5q-84 0 -121 -115l-172 47q35 113 117.5 175.5t195.5 62.5q111 0 178.5 -58.5t67.5 -154.5q0 -115 -121 -240l-203 -205h256l-33 -170h-561z" />
<glyph unicode="&#xb3;" horiz-adv-x="872" d="M174 868l164 21q8 -55 41 -84t78 -29q55 0 88 34t33 95q0 43 -25 72t-66 29q-37 0 -75 -21l-62 102l166 177h-237l32 170h506l-14 -72l-228 -234q84 0 138.5 -57t54.5 -151q0 -137 -86 -225.5t-236 -88.5q-121 0 -196.5 75.5t-75.5 186.5z" />
<glyph unicode="&#xb4;" horiz-adv-x="487" d="M82 1147l190 303h344l-340 -303h-194z" />
<glyph unicode="&#xb5;" horiz-adv-x="1216" d="M129 -418v1450h254v-661q0 -170 147 -170q98 0 167 112.5t69 307.5v411h254v-1032h-254v166q-127 -182 -320 -182q-33 0 -63 6v-408h-254z" />
<glyph unicode="&#xb6;" horiz-adv-x="1538" d="M147 938q0 240 156 368t408 128h796l-43 -222h-127l-315 -1630h-248l316 1630h-175l-315 -1630h-248l178 922q-156 0 -269.5 129t-113.5 305z" />
<glyph unicode="&#xb7;" horiz-adv-x="620" d="M147 753.5q0 73.5 49.5 123t123 49.5t123 -49.5t49.5 -123t-49.5 -122.5t-123 -49t-123 49t-49.5 122.5z" />
<glyph unicode="&#xb8;" horiz-adv-x="473" d="M-133 -410l342 287h180l-250 -422z" />
<glyph unicode="&#xb9;" horiz-adv-x="698" d="M174 1104l39 196l305 134h78l-158 -820h-184l111 570z" />
<glyph unicode="&#xba;" horiz-adv-x="880" d="M70 1024q0 182 110.5 300t301 118t301 -118t110.5 -300t-110.5 -300t-301 -118t-301 118t-110.5 300zM279 1024q0 -104 54 -176t148 -72t148.5 72t54.5 176t-54.5 176t-148.5 72t-148 -72t-54 -176z" />
<glyph unicode="&#xbb;" horiz-adv-x="1484" d="M25 104l55 293l420 248l-318 264l49 256l547 -446l-33 -180zM659 104l56 293l420 248l-318 264l49 256l547 -446l-33 -180z" />
<glyph unicode="&#xbc;" horiz-adv-x="1841" d="M139 43l1387 1473l129 -125l-1387 -1473zM162 1104l39 196l305 134h78l-158 -820h-184l110 570zM969 133l18 92l449 594h204l-100 -516h96l-32 -170h-97l-24 -133h-185l25 133h-354zM1227 303h129l49 250z" />
<glyph unicode="&#xbd;" horiz-adv-x="1943" d="M139 43l1387 1473l129 -125l-1387 -1473zM162 1104l39 196l305 134h78l-158 -820h-184l110 570zM1077 0l13 72l385 379q70 70 69 135q0 33 -19.5 52t-51.5 19q-84 0 -121 -114l-172 47q35 113 117.5 175t195.5 62q111 0 178.5 -58t67.5 -155q0 -115 -121 -239l-203 -205 h256l-33 -170h-561z" />
<glyph unicode="&#xbe;" horiz-adv-x="1988" d="M174 868l164 21q8 -55 41 -84t78 -29q55 0 88 34t33 95q0 43 -25 72t-66 29q-37 0 -75 -21l-62 102l166 177h-237l32 170h506l-14 -72l-228 -234q84 0 138.5 -57t54.5 -151q0 -137 -86 -225.5t-236 -88.5q-121 0 -196.5 75.5t-75.5 186.5zM287 43l1386 1473l129 -125 l-1386 -1473zM1077 133l19 92l448 594h205l-100 -516h96l-33 -170h-96l-25 -133h-184l25 133h-355zM1335 303h129l49 250z" />
<glyph unicode="&#xbf;" horiz-adv-x="935" d="M-39 -143q0 195 201 272l254 96q51 18 75.5 41t24.5 62q0 29 -18.5 48t-48.5 19q-72 0 -132 -102l-174 61q59 121 140.5 173.5t193.5 52.5q117 0 187.5 -64.5t70.5 -169.5q0 -111 -58.5 -168t-180.5 -108l-193 -80q-100 -49 -100 -117q0 -43 28.5 -68.5t81.5 -25.5 q135 0 203 166l223 -54q-49 -147 -167.5 -236t-282.5 -89q-150 0 -239 75t-89 216zM391 860q0 70 49 119t121 49t121 -49t49 -119q0 -72 -50 -122t-119.5 -50t-120 50t-50.5 122z" />
<glyph unicode="&#xc0;" horiz-adv-x="1224" d="M-135 0l766 1434h262l211 -1434h-287l-37 338h-454l-172 -338h-289zM449 584h303l-56 506zM504 1851h344l72 -303h-195z" />
<glyph unicode="&#xc1;" horiz-adv-x="1224" d="M-135 0l766 1434h262l211 -1434h-287l-37 338h-454l-172 -338h-289zM449 584h303l-56 506zM608 1548l191 303h344l-340 -303h-195z" />
<glyph unicode="&#xc2;" horiz-adv-x="1224" d="M-135 0l766 1434h262l211 -1434h-287l-37 338h-454l-172 -338h-289zM373 1561l409 381h84l271 -381h-248l-103 135l-151 -135h-262zM449 584h303l-56 506z" />
<glyph unicode="&#xc3;" horiz-adv-x="1224" d="M-135 0l766 1434h262l211 -1434h-287l-37 338h-454l-172 -338h-289zM379 1679q51 82 128 130.5t155 48.5q72 0 143.5 -42t116.5 -42q53 0 135 88l125 -113q-51 -82 -128 -130t-155 -48q-72 0 -143.5 42t-116.5 42q-53 0 -135 -88zM449 584h303l-56 506z" />
<glyph unicode="&#xc4;" horiz-adv-x="1224" d="M-135 0l766 1434h262l211 -1434h-287l-37 338h-454l-172 -338h-289zM449 584h303l-56 506zM463 1734.5q0 63.5 41 104.5t104.5 41t104.5 -41t41 -104.5t-41 -104.5t-104.5 -41t-104.5 41t-41 104.5zM887 1734.5q0 63.5 41 104.5t104.5 41t104.5 -41t41 -104.5t-41 -104.5 t-104.5 -41t-104.5 41t-41 104.5z" />
<glyph unicode="&#xc5;" horiz-adv-x="1224" d="M-135 0l766 1434h262l211 -1434h-287l-37 338h-454l-172 -338h-289zM449 584h303l-56 506zM602 1743q0 90 59.5 149.5t151.5 59.5t151.5 -59.5t59.5 -149.5t-59.5 -149.5t-151.5 -59.5t-151.5 59.5t-59.5 149.5zM752 1742.5q0 -65.5 61 -65.5t61 65.5t-61 65.5t-61 -65.5 z" />
<glyph unicode="&#xc6;" horiz-adv-x="1748" d="M-135 0l905 1434h1004l-50 -246h-598l-57 -301h475l-49 -246h-475l-76 -395h619l-50 -246h-886l67 338h-327l-203 -338h-299zM514 584h227l97 495h-27z" />
<glyph unicode="&#xc7;" horiz-adv-x="1421" d="M72 588q0 354 234.5 608t594.5 254q225 0 358.5 -126t153.5 -327l-252 -61q-29 139 -103.5 203.5t-203.5 64.5q-223 0 -366.5 -182t-143.5 -412q0 -186 87 -283.5t233 -97.5q127 0 218 65.5t169 213.5l235 -74q-98 -236 -259 -343t-411 -107q-231 0 -387.5 166 t-156.5 438zM272 -410l342 287h181l-250 -422z" />
<glyph unicode="&#xc8;" horiz-adv-x="1175" d="M53 0l281 1434h866l-49 -246h-598l-57 -301h475l-49 -246h-476l-75 -395h618l-49 -246h-887zM537 1851h344l71 -303h-194z" />
<glyph unicode="&#xc9;" horiz-adv-x="1175" d="M53 0l281 1434h866l-49 -246h-598l-57 -301h475l-49 -246h-476l-75 -395h618l-49 -246h-887zM584 1548l190 303h344l-340 -303h-194z" />
<glyph unicode="&#xca;" horiz-adv-x="1175" d="M53 0l281 1434h866l-49 -246h-598l-57 -301h475l-49 -246h-476l-75 -395h618l-49 -246h-887zM399 1561l410 381h84l270 -381h-248l-102 135l-151 -135h-263z" />
<glyph unicode="&#xcb;" horiz-adv-x="1175" d="M53 0l281 1434h866l-49 -246h-598l-57 -301h475l-49 -246h-476l-75 -395h618l-49 -246h-887zM449 1734.5q0 63.5 40.5 104.5t104 41t104.5 -41t41 -104.5t-41 -104.5t-104.5 -41t-104 41t-40.5 104.5zM872 1734.5q0 63.5 41 104.5t104.5 41t104.5 -41t41 -104.5 t-41 -104.5t-104.5 -41t-104.5 41t-41 104.5z" />
<glyph unicode="&#xcc;" horiz-adv-x="655" d="M53 0l281 1434h268l-280 -1434h-269zM225 1851h344l72 -303h-195z" />
<glyph unicode="&#xcd;" horiz-adv-x="655" d="M53 0l281 1434h268l-280 -1434h-269zM307 1548l191 303h344l-340 -303h-195z" />
<glyph unicode="&#xce;" horiz-adv-x="655" d="M53 0l281 1434h268l-280 -1434h-269zM88 1561l410 381h84l270 -381h-248l-102 135l-152 -135h-262z" />
<glyph unicode="&#xcf;" horiz-adv-x="655" d="M53 0l281 1434h268l-280 -1434h-269zM152 1734.5q0 63.5 40.5 104.5t104 41t104.5 -41t41 -104.5t-41 -104.5t-104.5 -41t-104 41t-40.5 104.5zM575 1734.5q0 63.5 41 104.5t104.5 41t104.5 -41t41 -104.5t-41 -104.5t-104.5 -41t-104.5 41t-41 104.5z" />
<glyph unicode="&#xd0;" horiz-adv-x="1392" d="M37 608l43 217h135l119 609h407q254 0 415 -149.5t161 -426.5q0 -399 -228.5 -628.5t-599.5 -229.5h-436l119 608h-135zM371 246h112q260 0 408.5 155.5t148.5 413.5q0 205 -103 289t-286 84h-98l-70 -363h242l-43 -217h-242z" />
<glyph unicode="&#xd1;" horiz-adv-x="1458" d="M53 0l281 1434h282l336 -947l185 947h268l-281 -1434h-282l-336 946l-184 -946h-269zM492 1679q51 82 127.5 130.5t154.5 48.5q72 0 143.5 -42t116.5 -42q53 0 135 88l125 -113q-51 -82 -127.5 -130t-154.5 -48q-72 0 -143.5 42t-116.5 42q-53 0 -136 -88z" />
<glyph unicode="&#xd2;" d="M72 586q0 356 198 594q223 270 592 270q238 0 399.5 -156.5t161.5 -445.5q0 -356 -198 -594q-223 -270 -592 -270q-238 0 -399.5 156.5t-161.5 445.5zM348 606q0 -178 79 -277.5t226 -99.5q199 0 340 164q154 180 154 434q0 178 -79 277.5t-226 99.5q-199 0 -340 -164 q-154 -180 -154 -434zM580 1851h344l71 -303h-194z" />
<glyph unicode="&#xd3;" d="M72 586q0 356 198 594q223 270 592 270q238 0 399.5 -156.5t161.5 -445.5q0 -356 -198 -594q-223 -270 -592 -270q-238 0 -399.5 156.5t-161.5 445.5zM348 606q0 -178 79 -277.5t226 -99.5q199 0 340 164q154 180 154 434q0 178 -79 277.5t-226 99.5q-199 0 -340 -164 q-154 -180 -154 -434zM684 1548l190 303h345l-340 -303h-195z" />
<glyph unicode="&#xd4;" d="M72 586q0 356 198 594q223 270 592 270q238 0 399.5 -156.5t161.5 -445.5q0 -356 -198 -594q-223 -270 -592 -270q-238 0 -399.5 156.5t-161.5 445.5zM348 606q0 -178 79 -277.5t226 -99.5q199 0 340 164q154 180 154 434q0 178 -79 277.5t-226 99.5q-199 0 -340 -164 q-154 -180 -154 -434zM485 1561l410 381h84l270 -381h-248l-102 135l-151 -135h-263z" />
<glyph unicode="&#xd5;" d="M72 586q0 356 198 594q223 270 592 270q238 0 399.5 -156.5t161.5 -445.5q0 -356 -198 -594q-223 -270 -592 -270q-238 0 -399.5 156.5t-161.5 445.5zM348 606q0 -178 79 -277.5t226 -99.5q199 0 340 164q154 180 154 434q0 178 -79 277.5t-226 99.5q-199 0 -340 -164 q-154 -180 -154 -434zM510 1679q51 82 128 130.5t155 48.5q72 0 143.5 -42t116.5 -42q53 0 135 88l125 -113q-51 -82 -128 -130t-155 -48q-72 0 -143.5 42t-116.5 42q-53 0 -135 -88z" />
<glyph unicode="&#xd6;" d="M72 586q0 356 198 594q223 270 592 270q238 0 399.5 -156.5t161.5 -445.5q0 -356 -198 -594q-223 -270 -592 -270q-238 0 -399.5 156.5t-161.5 445.5zM348 606q0 -178 79 -277.5t226 -99.5q199 0 340 164q154 180 154 434q0 178 -79 277.5t-226 99.5q-199 0 -340 -164 q-154 -180 -154 -434zM575 1734.5q0 63.5 41 104.5t104.5 41t104.5 -41t41 -104.5t-41 -104.5t-104.5 -41t-104.5 41t-41 104.5zM999 1734.5q0 63.5 41 104.5t104.5 41t104.5 -41t41 -104.5t-41 -104.5t-104.5 -41t-104.5 41t-41 104.5z" />
<glyph unicode="&#xd7;" horiz-adv-x="1191" d="M115 326l325 323l-325 324l157 157l324 -325l324 325l157 -157l-325 -324l325 -323l-157 -158l-324 326l-324 -326z" />
<glyph unicode="&#xd8;" d="M-43 45l195 203q-80 137 -80 338q0 356 198 594q223 270 592 270q197 0 342 -109l182 191l150 -143l-195 -203q82 -143 82 -338q0 -356 -198 -594q-223 -270 -592 -270q-203 0 -344 108l-183 -190zM348 606q0 -82 14 -139l658 684q-72 53 -178 53q-199 0 -340 -164 q-154 -180 -154 -434zM473 283q72 -53 180 -54q199 0 340 164q154 180 154 434q0 72 -17 142z" />
<glyph unicode="&#xd9;" horiz-adv-x="1394" d="M119 399q0 66 16 146l172 889h268l-172 -893q-12 -63 -12 -109q0 -96 52.5 -149.5t152.5 -53.5q256 0 317 312l172 893h271l-172 -889q-59 -305 -218 -433t-417 -128q-193 0 -311.5 108t-118.5 307zM582 1851h344l71 -303h-194z" />
<glyph unicode="&#xda;" horiz-adv-x="1394" d="M119 399q0 66 16 146l172 889h268l-172 -893q-12 -63 -12 -109q0 -96 52.5 -149.5t152.5 -53.5q256 0 317 312l172 893h271l-172 -889q-59 -305 -218 -433t-417 -128q-193 0 -311.5 108t-118.5 307zM662 1548l190 303h344l-340 -303h-194z" />
<glyph unicode="&#xdb;" horiz-adv-x="1394" d="M119 399q0 66 16 146l172 889h268l-172 -893q-12 -63 -12 -109q0 -96 52.5 -149.5t152.5 -53.5q256 0 317 312l172 893h271l-172 -889q-59 -305 -218 -433t-417 -128q-193 0 -311.5 108t-118.5 307zM467 1561l410 381h84l270 -381h-248l-102 135l-152 -135h-262z" />
<glyph unicode="&#xdc;" horiz-adv-x="1394" d="M119 399q0 66 16 146l172 889h268l-172 -893q-12 -63 -12 -109q0 -96 52.5 -149.5t152.5 -53.5q256 0 317 312l172 893h271l-172 -889q-59 -305 -218 -433t-417 -128q-193 0 -311.5 108t-118.5 307zM518 1734.5q0 63.5 41 104.5t104.5 41t104.5 -41t41 -104.5t-41 -104.5 t-104.5 -41t-104.5 41t-41 104.5zM942 1734.5q0 63.5 41 104.5t104.5 41t104.5 -41t41 -104.5t-41 -104.5t-104.5 -41t-104.5 41t-41 104.5z" />
<glyph unicode="&#xdd;" horiz-adv-x="1040" d="M98 1434h283l149 -557l373 557h287l-569 -824l-117 -610h-268l118 610zM475 1548l191 303h344l-340 -303h-195z" />
<glyph unicode="&#xde;" horiz-adv-x="1218" d="M53 0l281 1434h268l-55 -281h233q184 0 293 -97.5t109 -281.5q0 -231 -159 -362t-417 -131h-229l-55 -281h-269zM424 526h225q115 0 185.5 60.5t70.5 165.5q0 74 -43 114.5t-123 40.5h-241z" />
<glyph unicode="&#xdf;" horiz-adv-x="1196" d="M70 0l129 668h-105l43 229h107l24 127q82 426 490 426q160 0 246 -83t86 -226q0 -121 -53.5 -213t-153.5 -125q74 -18 136 -107.5t62 -216.5q0 -496 -522 -495q-102 0 -164 16l43 221q82 -16 119 -16q137 0 204.5 61.5t67.5 196.5q0 96 -53 150.5t-153 54.5h-66l45 229 h41q92 0 150.5 51t58.5 142q0 143 -131 143q-76 0 -130 -52.5t-75 -150.5l-201 -1030h-245z" />
<glyph unicode="&#xe0;" horiz-adv-x="1234" d="M45 401q0 289 155.5 468.5t434.5 179.5q76 0 138.5 -31t90.5 -74l17 88h256l-199 -1032h-256l20 106q-33 -45 -109.5 -83.5t-164.5 -38.5q-184 0 -283.5 117.5t-99.5 299.5zM317 449q0 -117 52.5 -182.5t136.5 -65.5q145 0 227 118.5t82 284.5q0 109 -51 168t-137 59 q-145 0 -227.5 -119.5t-82.5 -262.5zM403 1450h345l71 -303h-194z" />
<glyph unicode="&#xe1;" horiz-adv-x="1234" d="M45 401q0 289 155.5 468.5t434.5 179.5q76 0 138.5 -31t90.5 -74l17 88h256l-199 -1032h-256l20 106q-33 -45 -109.5 -83.5t-164.5 -38.5q-184 0 -283.5 117.5t-99.5 299.5zM317 449q0 -117 52.5 -182.5t136.5 -65.5q145 0 227 118.5t82 284.5q0 109 -51 168t-137 59 q-145 0 -227.5 -119.5t-82.5 -262.5zM483 1147l191 303h344l-340 -303h-195z" />
<glyph unicode="&#xe2;" horiz-adv-x="1234" d="M45 401q0 289 155.5 468.5t434.5 179.5q76 0 138.5 -31t90.5 -74l17 88h256l-199 -1032h-256l20 106q-33 -45 -109.5 -83.5t-164.5 -38.5q-184 0 -283.5 117.5t-99.5 299.5zM317 449q0 -117 52.5 -182.5t136.5 -65.5q145 0 227 118.5t82 284.5q0 109 -51 168t-137 59 q-145 0 -227.5 -119.5t-82.5 -262.5zM334 1159l409 381h84l271 -381h-248l-102 135l-152 -135h-262z" />
<glyph unicode="&#xe3;" horiz-adv-x="1234" d="M45 401q0 289 155.5 468.5t434.5 179.5q76 0 138.5 -31t90.5 -74l17 88h256l-199 -1032h-256l20 106q-33 -45 -109.5 -83.5t-164.5 -38.5q-184 0 -283.5 117.5t-99.5 299.5zM315 1278q51 82 128 130t155 48q72 0 143.5 -42t116.5 -42q53 0 135 88l125 -112 q-51 -82 -128 -130.5t-154 -48.5q-72 0 -143.5 42t-117.5 42q-53 0 -135 -88zM317 449q0 -117 52.5 -182.5t136.5 -65.5q145 0 227 118.5t82 284.5q0 109 -51 168t-137 59q-145 0 -227.5 -119.5t-82.5 -262.5z" />
<glyph unicode="&#xe4;" horiz-adv-x="1234" d="M45 401q0 289 155.5 468.5t434.5 179.5q76 0 138.5 -31t90.5 -74l17 88h256l-199 -1032h-256l20 106q-33 -45 -109.5 -83.5t-164.5 -38.5q-184 0 -283.5 117.5t-99.5 299.5zM317 449q0 -117 52.5 -182.5t136.5 -65.5q145 0 227 118.5t82 284.5q0 109 -51 168t-137 59 q-145 0 -227.5 -119.5t-82.5 -262.5zM379 1333.5q0 63.5 41 104.5t104.5 41t104.5 -41t41 -104.5t-41 -104.5t-104.5 -41t-104.5 41t-41 104.5zM803 1333.5q0 63.5 41 104.5t104.5 41t104.5 -41t41 -104.5t-41 -104.5t-104.5 -41t-104.5 41t-41 104.5z" />
<glyph unicode="&#xe5;" horiz-adv-x="1234" d="M45 401q0 289 155.5 468.5t434.5 179.5q76 0 138.5 -31t90.5 -74l17 88h256l-199 -1032h-256l20 106q-33 -45 -109.5 -83.5t-164.5 -38.5q-184 0 -283.5 117.5t-99.5 299.5zM317 449q0 -117 52.5 -182.5t136.5 -65.5q145 0 227 118.5t82 284.5q0 109 -51 168t-137 59 q-145 0 -227.5 -119.5t-82.5 -262.5zM502 1341.5q0 90.5 59.5 149.5t151.5 59t151.5 -59t59.5 -149.5t-59.5 -149.5t-151.5 -59t-151.5 59t-59.5 149.5zM651 1341.5q0 -65.5 61.5 -65.5t61.5 65.5t-61.5 65.5t-61.5 -65.5z" />
<glyph unicode="&#xe6;" horiz-adv-x="1837" d="M45 281q0 176 130 265t317 89h258l8 45q4 25 4 37q0 57 -45 85.5t-113 28.5q-135 0 -201 -118l-213 49q98 287 435 287q227 0 319 -129q162 129 385 129q197 0 305.5 -117t108.5 -297q0 -59 -8 -96l-21 -105h-735q-2 -12 -2 -39q0 -80 54 -137t151 -57q164 0 282 176 l203 -105q-100 -150 -219 -219t-289 -69q-262 0 -379 198q-80 -96 -181 -147t-202 -51q-168 0 -260 79t-92 218zM334 305q0 -51 32.5 -79.5t90.5 -28.5q90 0 159.5 59t90.5 158l4 20h-189q-84 0 -136 -25.5t-52 -103.5zM1022 635h469q-12 197 -195 196q-92 0 -165.5 -56 t-108.5 -140z" />
<glyph unicode="&#xe7;" horiz-adv-x="1144" d="M45 416q0 258 172 445.5t449 187.5q332 0 405 -297l-233 -86q-47 166 -215 165q-143 0 -224.5 -120.5t-81.5 -276.5q0 -233 185 -233q150 0 274 178l203 -86q-94 -164 -219 -236.5t-301 -72.5q-193 0 -303.5 123t-110.5 309zM98 -410l342 287h181l-250 -422z" />
<glyph unicode="&#xe8;" horiz-adv-x="1161" d="M41 440q0 248 170 428.5t442 180.5q197 0 305.5 -117t108.5 -297q0 -59 -8 -96l-21 -105h-741v-33q0 -84 56.5 -142t152.5 -58q164 0 282 176l203 -105q-100 -150 -219 -219t-289 -69q-195 0 -318.5 122.5t-123.5 333.5zM346 635h471q-12 197 -196 196q-92 0 -166 -56 t-109 -140zM395 1450h344l72 -303h-195z" />
<glyph unicode="&#xe9;" horiz-adv-x="1161" d="M41 440q0 248 170 428.5t442 180.5q197 0 305.5 -117t108.5 -297q0 -59 -8 -96l-21 -105h-741v-33q0 -84 56.5 -142t152.5 -58q164 0 282 176l203 -105q-100 -150 -219 -219t-289 -69q-195 0 -318.5 122.5t-123.5 333.5zM346 635h471q-12 197 -196 196q-92 0 -166 -56 t-109 -140zM457 1147l190 303h344l-340 -303h-194z" />
<glyph unicode="&#xea;" horiz-adv-x="1161" d="M41 440q0 248 170 428.5t442 180.5q197 0 305.5 -117t108.5 -297q0 -59 -8 -96l-21 -105h-741v-33q0 -84 56.5 -142t152.5 -58q164 0 282 176l203 -105q-100 -150 -219 -219t-289 -69q-195 0 -318.5 122.5t-123.5 333.5zM287 1159l409 381h84l271 -381h-248l-103 135 l-151 -135h-262zM346 635h471q-12 197 -196 196q-92 0 -166 -56t-109 -140z" />
<glyph unicode="&#xeb;" horiz-adv-x="1161" d="M41 440q0 248 170 428.5t442 180.5q197 0 305.5 -117t108.5 -297q0 -59 -8 -96l-21 -105h-741v-33q0 -84 56.5 -142t152.5 -58q164 0 282 176l203 -105q-100 -150 -219 -219t-289 -69q-195 0 -318.5 122.5t-123.5 333.5zM346 635h471q-12 197 -196 196q-92 0 -166 -56 t-109 -140zM360 1333.5q0 63.5 41 104.5t104.5 41t104.5 -41t41 -104.5t-41 -104.5t-104.5 -41t-104.5 41t-41 104.5zM784 1333.5q0 63.5 41 104.5t104.5 41t104.5 -41t41 -104.5t-41 -104.5t-104.5 -41t-104.5 41t-41 104.5z" />
<glyph unicode="&#xec;" horiz-adv-x="589" d="M37 0l201 1032h256l-201 -1032h-256zM127 1450h344l72 -303h-195z" />
<glyph unicode="&#xed;" horiz-adv-x="589" d="M37 0l201 1032h256l-201 -1032h-256zM229 1147l191 303h344l-340 -303h-195z" />
<glyph unicode="&#xee;" horiz-adv-x="589" d="M-6 1159l409 381h84l271 -381h-248l-102 135l-152 -135h-262zM37 0l201 1032h256l-201 -1032h-256z" />
<glyph unicode="&#xef;" horiz-adv-x="589" d="M37 0l201 1032h256l-201 -1032h-256zM61 1333.5q0 63.5 41 104.5t104.5 41t104.5 -41t41 -104.5t-41 -104.5t-104.5 -41t-104.5 41t-41 104.5zM485 1333.5q0 63.5 41 104.5t104.5 41t104.5 -41t41 -104.5t-41 -104.5t-104.5 -41t-104.5 41t-41 104.5z" />
<glyph unicode="&#xf0;" horiz-adv-x="1214" d="M45 418q0 274 173 452.5t452 178.5q88 0 159 -41q-43 106 -133 182l-84 -96l-133 108l76 86q-109 61 -160 80l162 186q82 -39 156 -86l88 99l135 -107l-86 -96q125 -106 189.5 -274t64.5 -359q0 -152 -34 -280.5t-104.5 -236.5t-195.5 -169t-293 -61q-201 0 -316.5 126 t-115.5 308zM313 457q0 -125 49.5 -190.5t143.5 -65.5q141 0 227 114.5t86 266.5q0 117 -47 183t-143 66q-145 0 -230.5 -116.5t-85.5 -257.5z" />
<glyph unicode="&#xf1;" horiz-adv-x="1198" d="M37 0l201 1032h256l-33 -166q143 182 346 183q125 0 191.5 -61.5t66.5 -170.5q0 -41 -8 -80l-144 -737h-256l129 662q6 33 7 59q0 53 -30 81.5t-81 28.5q-98 0 -184 -111.5t-125 -307.5l-80 -412h-256zM301 1278q51 82 128 130t155 48q72 0 143.5 -42t116.5 -42 q53 0 135 88l125 -112q-51 -82 -128 -130.5t-155 -48.5q-72 0 -143.5 42t-116.5 42q-53 0 -135 -88z" />
<glyph unicode="&#xf2;" horiz-adv-x="1204" d="M45 420q0 295 176 465q94 90 191.5 127t230.5 37q205 0 328 -124t123 -313q0 -295 -176 -465q-94 -90 -191.5 -126.5t-230.5 -36.5q-205 0 -328 124t-123 312zM317 459q0 -119 54.5 -188.5t146.5 -69.5q143 0 227 110q76 96 76 262q0 119 -54 188.5t-146 69.5 q-143 0 -228 -110q-76 -96 -76 -262zM381 1450h344l72 -303h-195z" />
<glyph unicode="&#xf3;" horiz-adv-x="1204" d="M45 420q0 295 176 465q94 90 191.5 127t230.5 37q205 0 328 -124t123 -313q0 -295 -176 -465q-94 -90 -191.5 -126.5t-230.5 -36.5q-205 0 -328 124t-123 312zM317 459q0 -119 54.5 -188.5t146.5 -69.5q143 0 227 110q76 96 76 262q0 119 -54 188.5t-146 69.5 q-143 0 -228 -110q-76 -96 -76 -262zM463 1147l190 303h344l-340 -303h-194z" />
<glyph unicode="&#xf4;" horiz-adv-x="1204" d="M45 420q0 295 176 465q94 90 191.5 127t230.5 37q205 0 328 -124t123 -313q0 -295 -176 -465q-94 -90 -191.5 -126.5t-230.5 -36.5q-205 0 -328 124t-123 312zM266 1159l410 381h84l270 -381h-248l-102 135l-152 -135h-262zM317 459q0 -119 54.5 -188.5t146.5 -69.5 q143 0 227 110q76 96 76 262q0 119 -54 188.5t-146 69.5q-143 0 -228 -110q-76 -96 -76 -262z" />
<glyph unicode="&#xf5;" horiz-adv-x="1204" d="M45 420q0 295 176 465q94 90 191.5 127t230.5 37q205 0 328 -124t123 -313q0 -295 -176 -465q-94 -90 -191.5 -126.5t-230.5 -36.5q-205 0 -328 124t-123 312zM287 1278q51 82 128 130t154 48q72 0 143.5 -42t116.5 -42q53 0 136 88l125 -112q-51 -82 -128 -130.5 t-155 -48.5q-72 0 -143.5 42t-116.5 42q-53 0 -135 -88zM317 459q0 -119 54.5 -188.5t146.5 -69.5q143 0 227 110q76 96 76 262q0 119 -54 188.5t-146 69.5q-143 0 -228 -110q-76 -96 -76 -262z" />
<glyph unicode="&#xf6;" horiz-adv-x="1204" d="M45 420q0 295 176 465q94 90 191.5 127t230.5 37q205 0 328 -124t123 -313q0 -295 -176 -465q-94 -90 -191.5 -126.5t-230.5 -36.5q-205 0 -328 124t-123 312zM317 459q0 -119 54.5 -188.5t146.5 -69.5q143 0 227 110q76 96 76 262q0 119 -54 188.5t-146 69.5 q-143 0 -228 -110q-76 -96 -76 -262zM356 1333.5q0 63.5 41 104.5t104.5 41t104.5 -41t41 -104.5t-41 -104.5t-104.5 -41t-104.5 41t-41 104.5zM780 1333.5q0 63.5 41 104.5t104.5 41t104.5 -41t41 -104.5t-41 -104.5t-104.5 -41t-104.5 41t-41 104.5z" />
<glyph unicode="&#xf7;" horiz-adv-x="1230" d="M133 535v221h975v-221h-975zM449 254q0 74 49 123t122.5 49t123 -49t49.5 -123t-49.5 -123t-123 -49t-122.5 49t-49 123zM449 1036.5q0 73.5 49 122.5t122.5 49t123 -49t49.5 -122.5t-49.5 -123t-123 -49.5t-122.5 49.5t-49 123z" />
<glyph unicode="&#xf8;" horiz-adv-x="1204" d="M-72 10l176 180q-59 100 -59 232q0 293 176 463q94 90 191.5 127t230.5 37t240 -60l170 174l151 -141l-172 -176q61 -106 62 -234q0 -295 -176 -465q-94 -90 -191.5 -126.5t-230.5 -36.5q-143 0 -246 59l-170 -174zM317 459q0 -35 2 -49l390 401q-45 20 -88 20 q-143 0 -228 -110q-76 -96 -76 -262zM426 223q41 -23 92 -22q143 0 227 110q76 96 76 262q0 20 -4 54z" />
<glyph unicode="&#xf9;" horiz-adv-x="1206" d="M84 215q0 41 8 80l144 737h256l-130 -661q-6 -35 -6 -60q0 -53 29 -81.5t82 -28.5q98 0 184 111.5t125 308.5l80 411h256l-201 -1032h-256l33 166q-143 -182 -346 -182q-125 0 -191.5 61t-66.5 170zM395 1450h344l72 -303h-195z" />
<glyph unicode="&#xfa;" horiz-adv-x="1206" d="M84 215q0 41 8 80l144 737h256l-130 -661q-6 -35 -6 -60q0 -53 29 -81.5t82 -28.5q98 0 184 111.5t125 308.5l80 411h256l-201 -1032h-256l33 166q-143 -182 -346 -182q-125 0 -191.5 61t-66.5 170zM532 1147l191 303h344l-340 -303h-195z" />
<glyph unicode="&#xfb;" horiz-adv-x="1206" d="M84 215q0 41 8 80l144 737h256l-130 -661q-6 -35 -6 -60q0 -53 29 -81.5t82 -28.5q98 0 184 111.5t125 308.5l80 411h256l-201 -1032h-256l33 166q-143 -182 -346 -182q-125 0 -191.5 61t-66.5 170zM309 1159l410 381h84l270 -381h-248l-102 135l-152 -135h-262z" />
<glyph unicode="&#xfc;" horiz-adv-x="1206" d="M84 215q0 41 8 80l144 737h256l-130 -661q-6 -35 -6 -60q0 -53 29 -81.5t82 -28.5q98 0 184 111.5t125 308.5l80 411h256l-201 -1032h-256l33 166q-143 -182 -346 -182q-125 0 -191.5 61t-66.5 170zM369 1333.5q0 63.5 41 104.5t104.5 41t104 -41t40.5 -104.5 t-40.5 -104.5t-104 -41t-104.5 41t-41 104.5zM793 1333.5q0 63.5 40.5 104.5t104 41t104.5 -41t41 -104.5t-41 -104.5t-104.5 -41t-104 41t-40.5 104.5z" />
<glyph unicode="&#xfd;" horiz-adv-x="1009" d="M-20 -418l264 475l-168 975h256l102 -647l340 647h268l-806 -1450h-256zM358 1147l191 303h344l-340 -303h-195z" />
<glyph unicode="&#xfe;" horiz-adv-x="1241" d="M-37 -418l361 1868h256l-101 -512q119 111 275 111q170 0 273 -113t103 -315q0 -279 -147 -458t-414 -179q-90 0 -156.5 37.5t-93.5 84.5l-100 -524h-256zM365 442q0 -115 52 -178t146 -63q137 0 216 120.5t79 266.5q0 117 -50 180t-138 63q-137 0 -221 -113.5 t-84 -275.5z" />
<glyph unicode="&#xff;" horiz-adv-x="1009" d="M-20 -418l264 475l-168 975h256l102 -647l340 647h268l-806 -1450h-256zM244 1333.5q0 63.5 41 104.5t104.5 41t104.5 -41t41 -104.5t-41 -104.5t-104.5 -41t-104.5 41t-41 104.5zM668 1333.5q0 63.5 41 104.5t104.5 41t104 -41t40.5 -104.5t-40.5 -104.5t-104 -41 t-104.5 41t-41 104.5z" />
<glyph unicode="&#x152;" horiz-adv-x="2134" d="M72 586q0 356 198 594q223 270 592 270q244 0 402 -160l28 144h867l-50 -246h-598l-57 -301h475l-49 -246h-475l-76 -395h619l-50 -246h-886l16 82q-166 -98 -395 -98q-238 0 -399.5 156.5t-161.5 445.5zM348 606q0 -178 79 -277.5t226 -99.5q199 0 340 164 q154 180 154 434q0 178 -79 277.5t-226 99.5q-199 0 -340 -164q-154 -180 -154 -434z" />
<glyph unicode="&#x153;" horiz-adv-x="1937" d="M45 420q0 295 176 465q94 90 191.5 127t230.5 37q236 0 363 -164q170 164 424 164q197 0 305 -117t108 -297q0 -59 -8 -96l-20 -105h-736q-2 -12 -2 -39q0 -80 54.5 -137t150.5 -57q164 0 283 176l202 -105q-100 -150 -218.5 -219t-288.5 -69q-227 0 -351 155 q-166 -156 -413 -155q-205 0 -328 124t-123 312zM317 459q0 -119 54.5 -188.5t146.5 -69.5q143 0 227 110q76 96 76 262q0 119 -54 188.5t-146 69.5q-143 0 -228 -110q-76 -96 -76 -262zM1122 635h469q-12 197 -194 196q-92 0 -166 -56t-109 -140z" />
<glyph unicode="&#x178;" horiz-adv-x="1040" d="M98 1434h283l149 -557l373 557h287l-569 -824l-117 -610h-268l118 610zM330 1734.5q0 63.5 41 104.5t104.5 41t104.5 -41t41 -104.5t-41 -104.5t-104.5 -41t-104.5 41t-41 104.5zM754 1734.5q0 63.5 41 104.5t104.5 41t104 -41t40.5 -104.5t-40.5 -104.5t-104 -41 t-104.5 41t-41 104.5z" />
<glyph unicode="&#x2c6;" horiz-adv-x="866" d="M127 1159l410 381h84l270 -381h-248l-102 135l-152 -135h-262z" />
<glyph unicode="&#x2dc;" horiz-adv-x="843" d="M125 1278q51 82 128 130t155 48q72 0 143.5 -42t116.5 -42q53 0 135 88l125 -112q-51 -82 -128 -130.5t-155 -48.5q-72 0 -143.5 42t-116.5 42q-53 0 -135 -88z" />
<glyph unicode="&#x2000;" horiz-adv-x="976" />
<glyph unicode="&#x2001;" horiz-adv-x="1952" />
<glyph unicode="&#x2002;" horiz-adv-x="976" />
<glyph unicode="&#x2003;" horiz-adv-x="1952" />
<glyph unicode="&#x2004;" horiz-adv-x="650" />
<glyph unicode="&#x2005;" horiz-adv-x="488" />
<glyph unicode="&#x2006;" horiz-adv-x="325" />
<glyph unicode="&#x2007;" horiz-adv-x="325" />
<glyph unicode="&#x2008;" horiz-adv-x="244" />
<glyph unicode="&#x2009;" horiz-adv-x="390" />
<glyph unicode="&#x200a;" horiz-adv-x="108" />
<glyph unicode="&#x2010;" horiz-adv-x="1034" d="M98 539l43 221h764l-43 -221h-764z" />
<glyph unicode="&#x2011;" horiz-adv-x="1034" d="M98 539l43 221h764l-43 -221h-764z" />
<glyph unicode="&#x2012;" horiz-adv-x="1034" d="M98 539l43 221h764l-43 -221h-764z" />
<glyph unicode="&#x2013;" horiz-adv-x="1167" d="M94 539l43 221h912l-43 -221h-912z" />
<glyph unicode="&#x2014;" horiz-adv-x="1554" d="M94 539l43 221h1299l-43 -221h-1299z" />
<glyph unicode="&#x2018;" horiz-adv-x="663" d="M180 1450h332l63 -500h-186z" />
<glyph unicode="&#x2019;" horiz-adv-x="563" d="M80 950l256 500h334l-402 -500h-188z" />
<glyph unicode="&#x201a;" horiz-adv-x="747" d="M-12 -29l256 500h334l-402 -500h-188z" />
<glyph unicode="&#x201c;" horiz-adv-x="1114" d="M180 1450h332l63 -500h-186zM631 1450h332l63 -500h-186z" />
<glyph unicode="&#x201d;" horiz-adv-x="993" d="M80 950l256 500h334l-402 -500h-188zM510 950l256 500h334l-402 -500h-188z" />
<glyph unicode="&#x201e;" horiz-adv-x="1167" d="M-12 -31l256 500h334l-402 -500h-188zM418 -31l256 500h334l-402 -500h-188z" />
<glyph unicode="&#x2022;" horiz-adv-x="792" d="M133 675.5q0 100.5 70.5 171.5t171 71t171 -71t70.5 -171.5t-70.5 -171t-171 -70.5t-171 70.5t-70.5 171z" />
<glyph unicode="&#x2026;" horiz-adv-x="1941" d="M41 159.5q0 73.5 49 123t123 49.5t123 -49.5t49 -123t-49 -122.5t-123 -49t-123 49t-49 122.5zM700 159.5q0 73.5 49.5 123t123 49.5t122.5 -49.5t49 -123t-49 -122.5t-122.5 -49t-123 49t-49.5 122.5zM1360 159.5q0 73.5 49 123t123 49.5t123 -49.5t49 -123t-49 -122.5 t-123 -49t-123 49t-49 122.5z" />
<glyph unicode="&#x202f;" horiz-adv-x="390" />
<glyph unicode="&#x2039;" horiz-adv-x="849" d="M59 551l33 180l721 434l-55 -293l-420 -247l317 -265l-49 -256z" />
<glyph unicode="&#x203a;" horiz-adv-x="849" d="M25 104l55 293l420 248l-318 264l49 256l547 -446l-33 -180z" />
<glyph unicode="&#x205f;" horiz-adv-x="488" />
<glyph unicode="&#x20ac;" horiz-adv-x="1284" d="M4 442l143 222h82l23 106h-184l145 221h102q86 213 259.5 336t375.5 123q305 0 402 -268l-222 -121q-31 74 -91 112.5t-134 38.5q-221 0 -330 -221h459l-145 -221h-385l-23 -106h488l-146 -222h-356q29 -221 244 -221q154 0 270 152l180 -125q-197 -264 -495 -264 q-195 0 -312.5 130t-132.5 328h-217z" />
<glyph unicode="&#x2122;" horiz-adv-x="1744" d="M150 1249l34 185h627l-35 -185h-213l-123 -635h-200l122 635h-212zM776 614l158 820h201l102 -478l285 478h211l-158 -820h-201l76 396l-195 -320h-131l-71 320l-76 -396h-201z" />
<glyph unicode="&#x25fc;" horiz-adv-x="1030" d="M0 0v1030h1030v-1030h-1030z" />
</font>
</defs>
</svg>
